<svg xmlns="http://www.w3.org/2000/svg" width="44" height="44" viewBox="0 0 44 44">
    <g fill="none" fill-rule="evenodd" transform="translate(2 2)">
        <circle cx="20" cy="20" r="20" fill="#F5E932" stroke="#EBB836" stroke-width="3"/>
        <g stroke="#FFF" stroke-width="3" transform="translate(8 5.6)">
            <ellipse cx="2.951" cy="9.8" rx="2.951" ry="3" transform="matrix(-1 0 0 1 5.902 0)"/>
            <path d="M3.35 11.6c0 3.475 2.419 5.6 4.525 5.6M12 22.8c0-3.475-2.418-5.6-4.525-5.6"/>
            <ellipse cx="21.449" cy="9.8" rx="2.951" ry="3"/>
            <path d="M21.05 11.6c0 3.475-2.419 5.6-4.525 5.6M12.4 22.8c0-3.475 2.418-5.6 4.525-5.6M12.2 5.859v17.483"/>
            <ellipse cx="12.2" cy="2.979" rx="3" ry="2.979"/>
            <ellipse cx="12.2" cy="25.821" rx="3" ry="2.979"/>
        </g>
    </g>
</svg>
