<svg xmlns="http://www.w3.org/2000/svg" xmlns:xlink="http://www.w3.org/1999/xlink" width="40" height="40" viewBox="0 0 40 40">
    <defs>
        <circle id="a" cx="20" cy="20" r="20"/>
    </defs>
    <g fill="none" fill-rule="evenodd">
        <g>
            <use fill="#29CA1E" xlink:href="#a"/>
            <circle cx="20" cy="20" r="19" stroke="#269357" stroke-width="2"/>
        </g>
        <path fill="#FFF" d="M10 11.5L20 7l10 4.5v2.25h-1.765l-.125 15H30V31H10v-2.25h1.765v-15H10V11.5zm4.118 5.063v2.25h2.335l.018-2.25h-2.353zm4.706 0v2.25h2.335l.017-2.25h-2.352zm4.705 0v2.25h2.335l.018-2.25H23.53zm-9.411 4.5v2.25h2.335l.018-2.25h-2.353zm4.706 0v2.25h2.335l.017-2.25h-2.352zm4.705 0v2.25h2.335l.018-2.25H23.53z"/>
    </g>
</svg>
