<svg xmlns="http://www.w3.org/2000/svg" width="44" height="44" viewBox="0 0 44 44">
    <g fill="none" fill-rule="evenodd">
        <circle cx="20" cy="20" r="20" fill="#29CA1E" stroke="#269357" stroke-width="3" transform="translate(2 2)"/>
        <path fill="#FFF" d="M12.486 20.582a6.288 6.288 0 0 1-.033-.652c0-3.496 2.886-6.33 6.447-6.33 1.91 0 3.627.816 4.807 2.112a5.956 5.956 0 0 1 2.746-.665c2.82 0 5.177 1.944 5.757 4.541 2.416.654 4.19 2.826 4.19 5.406 0 3.096-2.557 5.606-5.71 5.606-.062 0-.124-.001-.185-.003v.003H13.558c-2.849 0-5.158-2.267-5.158-5.064 0-2.436 1.752-4.47 4.086-4.954z"/>
    </g>
</svg>
