<svg xmlns="http://www.w3.org/2000/svg" xmlns:xlink="http://www.w3.org/1999/xlink" width="40" height="40" viewBox="0 0 40 40">
    <defs>
        <circle id="a" cx="20" cy="20" r="20"/>
    </defs>
    <g fill="none" fill-rule="evenodd">
        <g>
            <use fill="#29CA1E" xlink:href="#a"/>
            <circle cx="20" cy="20" r="19" stroke="#269357" stroke-width="2"/>
        </g>
        <g fill="#FFF">
            <path fill-rule="nonzero" stroke="#FFF" d="M6.095 22.247c0 2.955 2.38 5.353 5.319 5.353h2.213v-1.607h-2.213c-2.05 0-3.713-1.676-3.713-3.746 0-1.86 1.351-3.43 3.152-3.704l.658-.1.024-.666c.066-1.902 1.616-3.413 3.505-3.413.643 0 1.258.174 1.797.5l.682.411.417-.68a6.228 6.228 0 0 1 5.314-2.988c3.448 0 6.245 2.818 6.245 6.297 0 .472-.052.937-.153 1.39l-.169.758.752.194a2.916 2.916 0 0 1 2.17 2.828c0 1.614-1.296 2.92-2.892 2.92h-2.729V27.6h2.729c2.485 0 4.498-2.028 4.498-4.526a4.53 4.53 0 0 0-2.667-4.135c.044-.341.067-.687.067-1.035C31.1 13.54 27.587 10 23.25 10a7.823 7.823 0 0 0-6.267 3.142 5.073 5.073 0 0 0-1.944-.385c-2.543 0-4.66 1.872-5.05 4.33a5.35 5.35 0 0 0-3.895 5.16z"/>
            <path d="M15.788 24.118v1.69l2.876-2.534-2.876-2.534v1.568h-2.277v1.81zM23.937 22.429v-1.69l-2.876 2.535 2.876 2.533V24.24h2.277v-1.81zM20.702 19.775h1.677l-2.516-2.896-2.517 2.896h1.558v2.292h1.798zM19.024 26.773h-1.678l2.517 2.895 2.516-2.895h-1.558V24.48h-1.797z"/>
        </g>
    </g>
</svg>
