<svg xmlns="http://www.w3.org/2000/svg" width="30" height="21" viewBox="0 0 30 21">
    <g fill="#FFF" fill-rule="evenodd">
        <path fill-rule="nonzero" d="M.596 13.247c0 3.233 2.64 5.853 5.895 5.853h2.745v-2.607H6.491a3.256 3.256 0 0 1-3.266-3.246 3.254 3.254 0 0 1 2.772-3.21l1.078-.162.038-1.08a3.05 3.05 0 0 1 3.056-2.93 3.05 3.05 0 0 1 1.567.428l1.113.662.682-1.095a5.836 5.836 0 0 1 4.966-2.753c3.222 0 5.833 2.595 5.833 5.797 0 .434-.047.862-.142 1.28l-.279 1.232 1.234.315a2.423 2.423 0 0 1 1.825 2.343c0 1.336-1.09 2.42-2.433 2.42h-3.268V19.1h3.268c2.795 0 5.061-2.25 5.061-5.026a5.024 5.024 0 0 0-2.67-4.43c.022-.246.033-.493.033-.74C26.96 4.262 23.17.5 18.497.5a8.474 8.474 0 0 0-6.522 3.048 5.72 5.72 0 0 0-1.806-.29c-2.694 0-4.994 1.873-5.556 4.439a5.86 5.86 0 0 0-4.017 5.55z"/>
        <path d="M10.928 15.118v1.69l2.917-2.534-2.917-2.534v1.568h-2.31v1.81zM19.194 13.429v-1.69l-2.918 2.535 2.918 2.533V15.24h2.309v-1.81zM15.912 10.775h1.701l-2.552-2.896-2.553 2.896h1.58v2.292h1.824zM14.21 17.773h-1.702l2.553 2.895 2.552-2.895h-1.58V15.48H14.21z"/>
    </g>
</svg>
