<svg xmlns="http://www.w3.org/2000/svg" xmlns:xlink="http://www.w3.org/1999/xlink" width="45" height="45" viewBox="0 0 45 45">
    <defs>
        <circle id="a" cx="20" cy="20" r="20"/>
        <circle id="b" cx="35" cy="10" r="10"/>
    </defs>
    <g fill="none" fill-rule="evenodd">
        <g transform="translate(0 5)">
            <use fill="#F5E932" xlink:href="#a"/>
            <circle cx="20" cy="20" r="19" stroke="#EBB836" stroke-width="2"/>
        </g>
        <path fill="#FFF" d="M16 17.6l8-3.6 8 3.6v1.8h-1.412l-.1 12H32v1.8H16v-1.8h1.412v-12H16v-1.8zm3.294 4.05v1.8h1.868l.014-1.8h-1.882zm3.765 0v1.8h1.868l.014-1.8H23.06zm3.765 0v1.8h1.868l.014-1.8h-1.882zm-7.53 3.6v1.8h1.868l.014-1.8h-1.882zm3.765 0v1.8h1.868l.014-1.8H23.06zm3.765 0v1.8h1.868l.014-1.8h-1.882z"/>
        <path fill="#F5E932" d="M9 18.6l8-3.6 8 3.6v15.6H9V18.6z"/>
        <path fill="#FFF" d="M8 19.6l8-3.6 8 3.6v1.8h-1.412l-.1 12H24v1.8H8v-1.8h1.412v-12H8v-1.8zm3.294 4.05v1.8h1.868l.014-1.8h-1.882zm3.765 0v1.8h1.868l.014-1.8H15.06zm3.765 0v1.8h1.868l.014-1.8h-1.882zm-7.53 3.6v1.8h1.868l.014-1.8h-1.882zm3.765 0v1.8h1.868l.014-1.8H15.06zm3.765 0v1.8h1.868l.014-1.8h-1.882z"/>
        <g transform="rotate(90 35 10)">
            <use fill="#FFF" xlink:href="#b"/>
            <circle cx="35" cy="10" r="9" stroke="#FB6800" stroke-width="2"/>
        </g>
    </g>
</svg>
