<svg xmlns="http://www.w3.org/2000/svg" width="24" height="22" viewBox="0 0 24 22">
    <path fill="#515151" fill-rule="evenodd" d="M0 5.6L8 2l8 3.6v1.8h-1.412l-.1 12H16v1.8H0v-1.8h1.412v-12H0V5.6zm11.389-3.525L16 0l8 3.6v1.8h-1.412l-.1 12H24v1.8h-7V4.6l-5.611-2.525zm7.435 5.575v1.8h1.868l.014-1.8h-1.882zm0 3.6v1.8h1.868l.014-1.8h-1.882zm-15.53-1.6v1.8h1.868l.014-1.8H3.294zm3.765 0v1.8h1.868l.014-1.8H7.06zm3.765 0v1.8h1.868l.014-1.8h-1.882zm-7.53 3.6v1.8h1.868l.014-1.8H3.294zm3.765 0v1.8h1.868l.014-1.8H7.06zm3.765 0v1.8h1.868l.014-1.8h-1.882z"/>
</svg>
