<svg xmlns="http://www.w3.org/2000/svg" width="29" height="20" viewBox="0 0 29 20">
    <g fill="#669E3F" fill-rule="evenodd">
        <path d="M6.442 0H21.74v4.286H6.442V0zm13.15 1.429h-.006a.714.714 0 1 0 0 1.428h.006a.714.714 0 0 0 0-1.428zm-2.39 0h-.006a.714.714 0 0 0 0 1.428h.005a.714.714 0 0 0 0-1.428zm-9.326 0v1.428h7.171V1.43H7.876zM6.442 5.238H21.74v4.286H6.442V5.238zm13.15 1.429h-.006a.714.714 0 1 0 0 1.428h.006a.714.714 0 0 0 0-1.428zm-2.39 0h-.006a.714.714 0 0 0 0 1.428h.005a.714.714 0 0 0 0-1.428zm-9.326 0v1.428h7.171V6.667H7.876zM6.442 10.476H21.74v4.286H6.442v-4.286zm13.15 1.429h-.006a.714.714 0 1 0 0 1.428h.006a.714.714 0 1 0 0-1.428zm-2.39 0h-.006a.714.714 0 1 0 0 1.428h.005a.714.714 0 1 0 0-1.428zm-9.326 0v1.428h7.171v-1.428H7.876zM6.442 15.714H21.74V20H6.442v-4.286zm13.15 1.429h-.006a.714.714 0 0 0 0 1.428h.006a.714.714 0 1 0 0-1.428zm-2.39 0h-.006a.714.714 0 0 0 0 1.428h.005a.714.714 0 1 0 0-1.428zm-9.326 0v1.428h7.171v-1.428H7.876zM22.625 4.208v-2.78h5.557v17.143h-5.557v-2.738h4.428v-1.605h-4.428v-1.735h4.428v-1.605h-4.428V9.153h4.428V7.548h-4.428V5.813h4.428V4.208h-4.428zM5.557 4.38V1.6H0v17.143h5.557v-2.738H1.128V14.4h4.429v-1.735H1.128V11.06h4.429V9.325H1.128V7.72h4.429V5.985H1.128V4.38h4.429z"/>
    </g>
</svg>
