<svg xmlns="http://www.w3.org/2000/svg" xmlns:xlink="http://www.w3.org/1999/xlink" width="40" height="40" viewBox="0 0 40 40">
    <defs>
        <circle id="a" cx="20" cy="20" r="20"/>
        <filter id="b" width="155%" height="155%" x="-27.5%" y="-27.5%" filterUnits="objectBoundingBox">
            <feGaussianBlur in="SourceAlpha" result="shadowBlurInner1" stdDeviation="10"/>
            <feOffset dy="2" in="shadowBlurInner1" result="shadowOffsetInner1"/>
            <feComposite in="shadowOffsetInner1" in2="SourceAlpha" k2="-1" k3="1" operator="arithmetic" result="shadowInnerInner1"/>
            <feColorMatrix in="shadowInnerInner1" values="0 0 0 0 0 0 0 0 0 0 0 0 0 0 0 0 0 0 0.3 0"/>
        </filter>
    </defs>
    <g fill="none" fill-rule="evenodd">
        <g>
            <use fill="#0653DC" xlink:href="#a"/>
            <use fill="#000" filter="url(#b)" xlink:href="#a"/>
            <circle cx="20" cy="20" r="19" stroke="#0524CE" stroke-width="2"/>
        </g>
        <g fill="#FFF">
            <path d="M12.4 10h15.2v4.286H12.4V10zm13.062 1.429a.712.712 0 0 0-.712.712v.004a.712.712 0 1 0 1.425 0v-.004a.712.712 0 0 0-.713-.712zm-2.375 0a.712.712 0 0 0-.712.712v.004a.712.712 0 1 0 1.425 0v-.004a.712.712 0 0 0-.713-.712zm-9.262 0v1.428h7.125V11.43h-7.125zM12.4 15.238h15.2v4.286H12.4v-4.286zm13.062 1.429a.712.712 0 0 0-.712.712v.004a.712.712 0 1 0 1.425 0v-.004a.712.712 0 0 0-.713-.712zm-2.375 0a.712.712 0 0 0-.712.712v.004a.712.712 0 1 0 1.425 0v-.004a.712.712 0 0 0-.713-.712zm-9.262 0v1.428h7.125v-1.428h-7.125zM12.4 20.476h15.2v4.286H12.4v-4.286zm13.062 1.429a.712.712 0 0 0-.712.712v.004a.712.712 0 1 0 1.425 0v-.004a.712.712 0 0 0-.713-.712zm-2.375 0a.712.712 0 0 0-.712.712v.004a.712.712 0 1 0 1.425 0v-.004a.712.712 0 0 0-.713-.712zm-9.262 0v1.428h7.125v-1.428h-7.125zM12.4 25.714h15.2V30H12.4v-4.286zm13.062 1.429a.713.713 0 0 0-.712.712v.004a.712.712 0 1 0 1.425 0v-.004a.713.713 0 0 0-.713-.712zm-2.375 0a.713.713 0 0 0-.712.712v.004a.712.712 0 1 0 1.425 0v-.004a.713.713 0 0 0-.713-.712zm-9.262 0v1.428h7.125v-1.428h-7.125zM28.479 14.208v-2.78H34v17.143h-5.521v-2.738h4.4v-1.605h-4.4v-1.735h4.4v-1.605h-4.4v-1.735h4.4v-1.605h-4.4v-1.735h4.4v-1.605h-4.4zM11.521 14.38V11.6H6v17.143h5.521v-2.738h-4.4V24.4h4.4v-1.735h-4.4V21.06h4.4v-1.735h-4.4V17.72h4.4v-1.735h-4.4V14.38h4.4z"/>
        </g>
    </g>
</svg>
