<svg xmlns="http://www.w3.org/2000/svg" width="70" height="50" viewBox="0 0 70 50">
    <g fill="#FFF" fill-rule="evenodd">
        <path d="M16 0h38v10.714H16V0zm32.938 3.571h-.563a1.5 1.5 0 0 0-1.5 1.5v.572a1.5 1.5 0 0 0 1.5 1.5h.563a1.5 1.5 0 0 0 1.5-1.5V5.07a1.5 1.5 0 0 0-1.5-1.5zm-5.938 0h-.563a1.5 1.5 0 0 0-1.5 1.5v.572a1.5 1.5 0 0 0 1.5 1.5H43a1.5 1.5 0 0 0 1.5-1.5V5.07a1.5 1.5 0 0 0-1.5-1.5zm-23.438 0v3.572h17.813V3.57H19.562zM16 13.095h38V23.81H16V13.095zm32.938 3.572h-.563a1.5 1.5 0 0 0-1.5 1.5v.571a1.5 1.5 0 0 0 1.5 1.5h.563a1.5 1.5 0 0 0 1.5-1.5v-.571a1.5 1.5 0 0 0-1.5-1.5zm-5.938 0h-.563a1.5 1.5 0 0 0-1.5 1.5v.571a1.5 1.5 0 0 0 1.5 1.5H43a1.5 1.5 0 0 0 1.5-1.5v-.571a1.5 1.5 0 0 0-1.5-1.5zm-23.438 0v3.571h17.813v-3.571H19.562zM16 26.19h38v10.715H16V26.19zm32.938 3.572h-.563a1.5 1.5 0 0 0-1.5 1.5v.571a1.5 1.5 0 0 0 1.5 1.5h.563a1.5 1.5 0 0 0 1.5-1.5v-.571a1.5 1.5 0 0 0-1.5-1.5zm-5.938 0h-.563a1.5 1.5 0 0 0-1.5 1.5v.571a1.5 1.5 0 0 0 1.5 1.5H43a1.5 1.5 0 0 0 1.5-1.5v-.571a1.5 1.5 0 0 0-1.5-1.5zm-23.438 0v3.571h17.813v-3.571H19.562zM16 39.286h38V50H16V39.286zm32.938 3.571h-.563a1.5 1.5 0 0 0-1.5 1.5v.572a1.5 1.5 0 0 0 1.5 1.5h.563a1.5 1.5 0 0 0 1.5-1.5v-.572a1.5 1.5 0 0 0-1.5-1.5zm-5.938 0h-.563a1.5 1.5 0 0 0-1.5 1.5v.572a1.5 1.5 0 0 0 1.5 1.5H43a1.5 1.5 0 0 0 1.5-1.5v-.572a1.5 1.5 0 0 0-1.5-1.5zm-23.438 0v3.572h17.813v-3.572H19.562zM56.197 10.521v-6.95H70V46.43H56.197v-6.846h11v-4.012h-11v-4.338h11v-4.012h-11v-4.338h11v-4.012h-11v-4.337h11V10.52h-11zM13.803 10.95V4H0v42.857h13.803v-6.845h-11v-4.013h11v-4.337h-11v-4.013h11v-4.337h-11V19.3h11v-4.338h-11V10.95h11z"/>
    </g>
</svg>
